# This file uses centimeters as units for non-parametric coordinates.

mtllib box.mtl
g default
v -0.500000 -0.500783 0.065008
v 0.500000 -0.500783 0.065008
v -0.500000 0.500451 0.065008
v 0.500000 0.500451 0.065008
v -0.500000 0.500451 0.001936
v 0.500000 0.500451 0.001936
v -0.500000 -0.500783 0.001936
v 0.500000 -0.500783 0.001936
v -0.500076 -0.392497 0.007964
v -0.400541 -0.392497 0.007964
v -0.500076 0.380780 0.007964
v -0.400541 0.380780 0.007964
v -0.500076 0.380780 -0.055109
v -0.400541 0.380780 -0.055109
v -0.500076 -0.392497 -0.055109
v -0.400541 -0.392497 -0.055109
v -0.500000 -0.500757 0.004787
v 0.500000 -0.500757 0.004787
v -0.500000 -0.381617 0.004787
v 0.500000 -0.381617 0.004787
v -0.500000 -0.381617 -0.058285
v 0.500000 -0.381617 -0.058285
v -0.500000 -0.500757 -0.058285
v 0.500000 -0.500757 -0.058285
v 0.399655 -0.392497 0.003624
v 0.499190 -0.392497 0.003624
v 0.399655 0.380780 0.003624
v 0.499190 0.380780 0.003624
v 0.399655 0.380780 -0.059448
v 0.499190 0.380780 -0.059448
v 0.399655 -0.392497 -0.059448
v 0.499190 -0.392497 -0.059448
v -0.500000 0.376054 0.003585
v 0.500000 0.376054 0.003585
v -0.500000 0.500762 0.003585
v 0.500000 0.500762 0.003585
v -0.500000 0.500762 -0.059488
v 0.500000 0.500762 -0.059488
v -0.500000 0.376054 -0.059488
v 0.500000 0.376054 -0.059488
v -0.386964 -0.423415 0.004353
v 0.470368 0.347815 0.004353
v -0.470368 -0.330700 0.004353
v 0.386964 0.440529 0.004353
v -0.470368 -0.330700 -0.058720
v 0.386964 0.440529 -0.058720
v -0.386964 -0.423415 -0.058720
v 0.470368 0.347815 -0.058720
vt 0.431519 0.224851
vt 0.521921 0.224851
vt 0.431519 0.315253
vt 0.521921 0.315253
vt 0.431519 0.405655
vt 0.521921 0.405655
vt 0.431519 0.496057
vt 0.521921 0.496057
vt 0.431519 0.586459
vt 0.521921 0.586459
vt 0.612323 0.224851
vt 0.612323 0.315253
vt 0.341117 0.224851
vt 0.341117 0.315253
vt 0.100730 0.283789
vt 0.188619 0.283789
vt 0.188619 0.371678
vt 0.100730 0.371678
vt 0.188619 0.459566
vt 0.100730 0.459566
vt 0.188619 0.547455
vt 0.100730 0.547455
vt 0.188619 0.635344
vt 0.100730 0.635344
vt 0.276508 0.283789
vt 0.276508 0.371678
vt 0.012842 0.283789
vt 0.012842 0.371678
vt 0.788666 0.284826
vt 0.880325 0.284826
vt 0.880325 0.376484
vt 0.788666 0.376484
vt 0.880325 0.468143
vt 0.788666 0.468143
vt 0.880325 0.559802
vt 0.788666 0.559802
vt 0.880325 0.651461
vt 0.788666 0.651461
vt 0.971984 0.284826
vt 0.971984 0.376484
vt 0.697008 0.284826
vt 0.697008 0.376484
vt 0.446254 0.632988
vt 0.534142 0.632988
vt 0.534142 0.720877
vt 0.446254 0.720877
vt 0.534142 0.808765
vt 0.446254 0.808765
vt 0.534142 0.896654
vt 0.446254 0.896654
vt 0.534142 0.984543
vt 0.446254 0.984543
vt 0.622031 0.632988
vt 0.622031 0.720877
vt 0.358365 0.632988
vt 0.358365 0.720877
vt 0.796910 0.666998
vt 0.874532 0.666998
vt 0.874532 0.744621
vt 0.796910 0.744621
vt 0.874532 0.822243
vt 0.796910 0.822243
vt 0.874532 0.899866
vt 0.796910 0.899866
vt 0.874532 0.977488
vt 0.796910 0.977488
vt 0.952155 0.666998
vt 0.952155 0.744621
vt 0.719287 0.666998
vt 0.719287 0.744621
vt 0.104838 0.672697
vt 0.182061 0.672697
vt 0.182061 0.749920
vt 0.104838 0.749920
vt 0.182061 0.827144
vt 0.104838 0.827144
vt 0.182061 0.904368
vt 0.104838 0.904368
vt 0.182061 0.981592
vt 0.104838 0.981592
vt 0.259285 0.672697
vt 0.259285 0.749920
vt 0.027614 0.672697
vt 0.027614 0.749920
vt 0.104838 0.827144
vt 0.182061 0.827144
vn 0.000000 0.000000 1.000000
vn 0.000000 0.000000 1.000000
vn 0.000000 0.000000 1.000000
vn 0.000000 0.000000 1.000000
vn 0.000000 1.000000 0.000000
vn 0.000000 1.000000 0.000000
vn 0.000000 1.000000 0.000000
vn 0.000000 1.000000 0.000000
vn 0.000000 0.000000 -1.000000
vn 0.000000 0.000000 -1.000000
vn 0.000000 0.000000 -1.000000
vn 0.000000 0.000000 -1.000000
vn 0.000000 -1.000000 0.000000
vn 0.000000 -1.000000 0.000000
vn 0.000000 -1.000000 0.000000
vn 0.000000 -1.000000 0.000000
vn 1.000000 0.000000 0.000000
vn 1.000000 0.000000 0.000000
vn 1.000000 0.000000 0.000000
vn 1.000000 0.000000 0.000000
vn -1.000000 0.000000 0.000000
vn -1.000000 0.000000 0.000000
vn -1.000000 0.000000 0.000000
vn -1.000000 0.000000 0.000000
vn 0.000000 0.000000 1.000000
vn 0.000000 0.000000 1.000000
vn 0.000000 0.000000 1.000000
vn 0.000000 0.000000 1.000000
vn 0.000000 1.000000 0.000000
vn 0.000000 1.000000 0.000000
vn 0.000000 1.000000 0.000000
vn 0.000000 1.000000 0.000000
vn 0.000000 0.000000 -1.000000
vn 0.000000 0.000000 -1.000000
vn 0.000000 0.000000 -1.000000
vn 0.000000 0.000000 -1.000000
vn 0.000000 -1.000000 0.000000
vn 0.000000 -1.000000 0.000000
vn 0.000000 -1.000000 0.000000
vn 0.000000 -1.000000 0.000000
vn 1.000000 0.000000 0.000000
vn 1.000000 0.000000 0.000000
vn 1.000000 0.000000 0.000000
vn 1.000000 0.000000 0.000000
vn -1.000000 0.000000 0.000000
vn -1.000000 0.000000 0.000000
vn -1.000000 0.000000 0.000000
vn -1.000000 0.000000 0.000000
vn 0.000000 0.000000 1.000000
vn 0.000000 0.000000 1.000000
vn 0.000000 0.000000 1.000000
vn 0.000000 0.000000 1.000000
vn 0.000000 1.000000 0.000000
vn 0.000000 1.000000 0.000000
vn 0.000000 1.000000 0.000000
vn 0.000000 1.000000 0.000000
vn 0.000000 0.000000 -1.000000
vn 0.000000 0.000000 -1.000000
vn 0.000000 0.000000 -1.000000
vn 0.000000 0.000000 -1.000000
vn 0.000000 -1.000000 0.000000
vn 0.000000 -1.000000 0.000000
vn 0.000000 -1.000000 0.000000
vn 0.000000 -1.000000 0.000000
vn 1.000000 0.000000 0.000000
vn 1.000000 0.000000 0.000000
vn 1.000000 0.000000 0.000000
vn 1.000000 0.000000 0.000000
vn -1.000000 0.000000 0.000000
vn -1.000000 0.000000 0.000000
vn -1.000000 0.000000 0.000000
vn -1.000000 0.000000 0.000000
vn 0.000000 0.000000 1.000000
vn 0.000000 0.000000 1.000000
vn 0.000000 0.000000 1.000000
vn 0.000000 0.000000 1.000000
vn 0.000000 1.000000 0.000000
vn 0.000000 1.000000 0.000000
vn 0.000000 1.000000 0.000000
vn 0.000000 1.000000 0.000000
vn 0.000000 0.000000 -1.000000
vn 0.000000 0.000000 -1.000000
vn 0.000000 0.000000 -1.000000
vn 0.000000 0.000000 -1.000000
vn 0.000000 -1.000000 0.000000
vn 0.000000 -1.000000 0.000000
vn 0.000000 -1.000000 0.000000
vn 0.000000 -1.000000 0.000000
vn 1.000000 0.000000 0.000000
vn 1.000000 0.000000 0.000000
vn 1.000000 0.000000 0.000000
vn 1.000000 0.000000 0.000000
vn -1.000000 0.000000 0.000000
vn -1.000000 0.000000 0.000000
vn -1.000000 0.000000 0.000000
vn -1.000000 0.000000 0.000000
vn 0.000000 0.000000 1.000000
vn 0.000000 0.000000 1.000000
vn 0.000000 0.000000 1.000000
vn 0.000000 0.000000 1.000000
vn 0.000000 1.000000 0.000000
vn 0.000000 1.000000 0.000000
vn 0.000000 1.000000 0.000000
vn 0.000000 1.000000 0.000000
vn 0.000000 0.000000 -1.000000
vn 0.000000 0.000000 -1.000000
vn 0.000000 0.000000 -1.000000
vn 0.000000 0.000000 -1.000000
vn 0.000000 -1.000000 0.000000
vn 0.000000 -1.000000 0.000000
vn 0.000000 -1.000000 0.000000
vn 0.000000 -1.000000 0.000000
vn 1.000000 0.000000 0.000000
vn 1.000000 0.000000 0.000000
vn 1.000000 0.000000 0.000000
vn 1.000000 0.000000 0.000000
vn -1.000000 0.000000 0.000000
vn -1.000000 0.000000 0.000000
vn -1.000000 0.000000 0.000000
vn -1.000000 0.000000 0.000000
vn 0.000000 0.000000 1.000000
vn 0.000000 0.000000 1.000000
vn 0.000000 0.000000 1.000000
vn 0.000000 0.000000 1.000000
vn -0.668788 0.743453 0.000000
vn -0.668788 0.743453 0.000000
vn -0.668788 0.743453 0.000000
vn -0.668788 0.743453 0.000000
vn -0.000000 0.000000 -1.000000
vn -0.000000 0.000000 -1.000000
vn -0.000000 0.000000 -1.000000
vn -0.000000 0.000000 -1.000000
vn 0.668788 -0.743453 0.000000
vn 0.668788 -0.743453 0.000000
vn 0.668788 -0.743453 0.000000
vn 0.668788 -0.743453 0.000000
vn 0.743453 0.668788 0.000000
vn 0.743453 0.668788 0.000000
vn 0.743453 0.668788 0.000000
vn 0.743453 0.668788 0.000000
vn -0.743453 -0.668788 0.000000
vn -0.743453 -0.668788 0.000000
vn -0.743453 -0.668788 0.000000
vn -0.743453 -0.668788 0.000000
s off
g pCube32
usemtl initialShadingGroup
f 1/1/1 2/2/2 4/4/3 3/3/4
f 3/3/5 4/4/6 6/6/7 5/5/8
f 5/5/9 6/6/10 8/8/11 7/7/12
f 7/7/13 8/8/14 2/10/15 1/9/16
f 2/2/17 8/11/18 6/12/19 4/4/20
f 7/13/21 1/1/22 3/3/23 5/14/24
f 9/15/25 10/16/26 12/17/27 11/18/28
f 11/18/29 12/17/30 14/19/31 13/20/32
f 13/20/33 14/19/34 16/21/35 15/22/36
f 15/22/37 16/21/38 10/23/39 9/24/40
f 10/16/41 16/25/42 14/26/43 12/17/44
f 15/27/45 9/15/46 11/18/47 13/28/48
f 17/29/49 18/30/50 20/31/51 19/32/52
f 19/32/53 20/31/54 22/33/55 21/34/56
f 21/34/57 22/33/58 24/35/59 23/36/60
f 23/36/61 24/35/62 18/37/63 17/38/64
f 18/30/65 24/39/66 22/40/67 20/31/68
f 23/41/69 17/29/70 19/32/71 21/42/72
f 25/43/73 26/44/74 28/45/75 27/46/76
f 27/46/77 28/45/78 30/47/79 29/48/80
f 29/48/81 30/47/82 32/49/83 31/50/84
f 31/50/85 32/49/86 26/51/87 25/52/88
f 26/44/89 32/53/90 30/54/91 28/45/92
f 31/55/93 25/43/94 27/46/95 29/56/96
f 33/57/97 34/58/98 36/59/99 35/60/100
f 35/60/101 36/59/102 38/61/103 37/62/104
f 37/62/105 38/61/106 40/63/107 39/64/108
f 39/64/109 40/63/110 34/65/111 33/66/112
f 34/58/113 40/67/114 38/68/115 36/59/116
f 39/69/117 33/57/118 35/60/119 37/70/120
f 41/71/121 42/72/122 44/73/123 43/74/124
f 43/74/125 44/73/126 46/75/127 45/85/128
f 45/76/129 46/86/130 48/77/131 47/78/132
f 47/78/133 48/77/134 42/79/135 41/80/136
f 42/72/137 48/81/138 46/82/139 44/73/140
f 47/83/141 41/71/142 43/74/143 45/84/144
