# This file uses centimeters as units for non-parametric coordinates.

mtllib hedgehog.mtl
g default
v -4.396791 0.080221 -0.133619
v -4.353787 -0.070856 -0.082581
v -4.353787 -0.070856 0.082581
v -4.396791 0.080221 0.133619
v -4.423369 0.173591 0.000000
v -4.655159 -0.038464 0.000000
vt 0.577254 0.012236
vt 0.297746 0.103054
vt 0.297746 0.396946
vt 0.577254 0.487764
vt 0.750000 0.250000
vt 0.250000 0.500000
vt 0.350000 0.500000
vt 0.450000 0.500000
vt 0.550000 0.500000
vt 0.650000 0.500000
vt 0.750000 0.500000
vt 0.500000 1.000000
vn 0.961793 0.273776 0.000000
vn 0.961793 0.273776 0.000000
vn 0.961793 0.273776 0.000000
vn 0.961793 0.273776 0.000000
vn 0.961793 0.273776 0.000000
vn -0.282236 -0.378186 -0.881656
vn -0.282236 -0.378186 -0.881656
vn -0.282236 -0.378186 -0.881656
vn -0.106866 -0.994273 -0.000000
vn -0.106866 -0.994273 -0.000000
vn -0.106866 -0.994273 -0.000000
vn -0.282236 -0.378186 0.881656
vn -0.282236 -0.378186 0.881656
vn -0.282236 -0.378186 0.881656
vn -0.565991 0.618664 0.544894
vn -0.565991 0.618664 0.544894
vn -0.565991 0.618664 0.544894
vn -0.565991 0.618664 -0.544894
vn -0.565991 0.618664 -0.544894
vn -0.565991 0.618664 -0.544894
s off
g pCone1
usemtl initialShadingGroup
f 1/1/1 5/5/2 4/4/3 3/3/4 2/2/5
f 1/6/6 2/7/7 6/12/8
f 2/7/9 3/8/10 6/12/11
f 3/8/12 4/9/13 6/12/14
f 4/9/15 5/10/16 6/12/17
f 5/10/18 1/11/19 6/12/20
