# This file uses centimeters as units for non-parametric coordinates.

mtllib Wall 4.mtl
g default
v 0.053067 0.658231 0.763499
v 0.054258 0.658231 0.037242
v 0.053067 2.065404 0.763499
v 0.053067 2.065404 0.038427
v -0.148284 2.065404 0.763499
v -0.148284 2.065404 0.038427
v -0.148284 0.658231 0.763499
v -0.148284 0.658231 0.038427
v -0.495735 0.322261 0.763499
v -0.495735 0.322261 0.038427
v -0.294384 0.322261 0.038427
v -0.294384 0.322261 0.763499
v -0.495735 0.030008 0.763499
v -0.495735 0.030008 0.038427
v -0.294384 0.030008 0.038427
v -0.294384 0.030008 0.763499
v 0.779330 0.658231 0.037242
v 0.054258 2.065404 0.037242
v 0.779330 2.065404 0.037242
v 0.054258 2.065404 -0.164109
v 0.779330 2.065404 -0.164109
v 0.054258 0.658231 -0.164109
v 0.779330 0.658231 -0.164109
v 0.054258 0.322261 -0.511561
v 0.779330 0.322261 -0.511561
v 0.779330 0.322261 -0.310210
v 0.054258 0.322261 -0.310210
v 0.054258 0.030008 -0.511561
v 0.779330 0.030008 -0.511561
v 0.779330 0.030008 -0.310210
v 0.054258 0.030008 -0.310210
vt 0.405961 0.120040
vt 0.594417 0.119800
vt 0.403872 0.307746
vt 0.597269 0.306992
vt 0.404984 0.500794
vt 0.595139 0.499592
vt 0.405329 0.694950
vt 0.594623 0.691174
vt 0.405341 0.884506
vt 0.590525 0.880428
vt 0.783996 0.120633
vt 0.784744 0.311063
vt 0.215393 0.119768
vt 0.215587 0.311060
vt 0.405408 0.683112
vt 0.594548 0.668521
vt 0.594480 0.838685
vt 0.405410 0.851846
vt 0.405378 0.689977
vt 0.594560 0.686054
vt 0.594578 0.879723
vt 0.405409 0.878058
vt 0.404922 0.120239
vt 0.594049 0.119975
vt 0.597269 0.306992
vt 0.404950 0.307832
vt 0.595139 0.499592
vt 0.404821 0.501080
vt 0.594623 0.691174
vt 0.405250 0.695961
vt 0.405397 0.691030
vt 0.594560 0.686054
vt 0.594578 0.879723
vt 0.405429 0.880482
vt 0.783996 0.120633
vt 0.784744 0.311063
vt 0.594548 0.668521
vt 0.405385 0.680702
vt 0.594642 0.881516
vt 0.594480 0.838685
vt 0.405409 0.886345
vt 0.405380 0.849068
vt 0.783996 0.120638
vt 0.678992 0.308765
vt 0.590645 0.306846
vt 0.592977 1.085947
vt 0.594616 1.001784
vt 0.594637 0.695161
vt 0.594610 1.211023
vt 0.594608 1.195220
vn 1.000000 0.000423 0.000820
vn 1.000000 0.000423 0.000820
vn 1.000000 0.000423 0.000820
vn 1.000000 0.000423 0.000820
vn 0.000000 1.000000 0.000000
vn 0.000000 1.000000 0.000000
vn 0.000000 1.000000 0.000000
vn 0.000000 1.000000 0.000000
vn -1.000000 0.000000 0.000000
vn -1.000000 0.000000 0.000000
vn -1.000000 0.000000 0.000000
vn -1.000000 0.000000 0.000000
vn 0.000000 -1.000000 0.000000
vn 0.000000 -1.000000 0.000000
vn 0.000000 -1.000000 0.000000
vn 0.000000 -1.000000 0.000000
vn 0.000000 0.000000 1.000000
vn 0.000000 0.000000 1.000000
vn 0.000000 0.000000 1.000000
vn 0.000000 0.000000 1.000000
vn -0.695130 0.718884 0.000000
vn -0.695130 0.718884 0.000000
vn -0.695130 0.718884 0.000000
vn -0.695130 0.718884 0.000000
vn 0.694515 -0.719478 0.000570
vn 0.694515 -0.719478 0.000570
vn 0.694515 -0.719478 0.000570
vn 0.694515 -0.719478 0.000570
vn 0.000000 0.000000 1.000000
vn 0.000000 0.000000 1.000000
vn 0.000000 0.000000 1.000000
vn 0.000000 0.000000 1.000000
vn -1.000000 0.000000 0.000000
vn -1.000000 0.000000 0.000000
vn -1.000000 0.000000 0.000000
vn -1.000000 0.000000 0.000000
vn 1.000000 0.000000 0.000000
vn 1.000000 0.000000 0.000000
vn 1.000000 0.000000 0.000000
vn 1.000000 0.000000 0.000000
vn 0.000000 0.000000 1.000000
vn 0.000000 0.000000 1.000000
vn 0.000000 0.000000 1.000000
vn 0.000000 0.000000 1.000000
vn 0.000000 0.000000 1.000000
vn 0.000000 0.000000 1.000000
vn 0.000000 0.000000 1.000000
vn 0.000000 0.000000 1.000000
vn 0.000000 1.000000 0.000000
vn 0.000000 1.000000 0.000000
vn 0.000000 1.000000 0.000000
vn 0.000000 1.000000 0.000000
vn 0.000000 0.000000 -1.000000
vn 0.000000 0.000000 -1.000000
vn 0.000000 0.000000 -1.000000
vn 0.000000 0.000000 -1.000000
vn 0.000000 -1.000000 0.000000
vn 0.000000 -1.000000 0.000000
vn 0.000000 -1.000000 0.000000
vn 0.000000 -1.000000 0.000000
vn 1.000000 0.000000 0.000000
vn 1.000000 0.000000 0.000000
vn 1.000000 0.000000 0.000000
vn 1.000000 0.000000 0.000000
vn 0.000000 0.718884 -0.695130
vn 0.000000 0.718884 -0.695130
vn 0.000000 0.718884 -0.695130
vn 0.000000 0.718884 -0.695130
vn 1.000000 0.000000 0.000000
vn 1.000000 0.000000 0.000000
vn 1.000000 0.000000 0.000000
vn 1.000000 0.000000 0.000000
vn 0.000000 -0.718884 0.695130
vn 0.000000 -0.718884 0.695130
vn 0.000000 -0.718884 0.695130
vn 0.000000 -0.718884 0.695130
vn 0.000000 0.000000 -1.000000
vn 0.000000 0.000000 -1.000000
vn 0.000000 0.000000 -1.000000
vn 0.000000 0.000000 -1.000000
vn 1.000000 0.000000 0.000000
vn 1.000000 0.000000 0.000000
vn 1.000000 0.000000 0.000000
vn 1.000000 0.000000 0.000000
vn 0.000000 0.000000 1.000000
vn 0.000000 0.000000 1.000000
vn 0.000000 0.000000 1.000000
vn 0.000000 0.000000 1.000000
vn -0.707097 0.000000 -0.707117
vn -0.707097 0.000000 -0.707117
vn -0.707097 0.000000 -0.707117
vn -0.707097 0.000000 -0.707117
vn 0.000000 1.000000 0.000001
vn 0.000000 1.000000 0.000001
vn 0.000000 1.000000 0.000001
vn 0.000000 1.000000 0.000001
vn 0.705363 0.000000 0.708846
vn 0.705363 0.000000 0.708846
vn 0.705363 0.000000 0.708846
vn 0.570769 -0.590284 0.570779
vn 0.570769 -0.590284 0.570779
vn 0.570769 -0.590284 0.570778
vn -0.570771 0.590280 -0.570780
vn -0.570771 0.590280 -0.570780
vn -0.570771 0.590280 -0.570780
vn -0.570771 0.590280 -0.570780
vn 0.707101 0.000000 0.707113
vn 0.707101 0.000000 0.707113
vn 0.707101 0.000000 0.707113
vn 0.707101 0.000000 0.707113
vn 0.000000 -1.000000 0.000000
vn 0.000000 -1.000000 0.000000
vn 0.000000 -1.000000 0.000000
vn 0.000000 -1.000000 0.000000
vn -0.707103 0.000000 -0.707111
vn -0.707103 0.000000 -0.707111
vn -0.707103 0.000000 -0.707111
vn -0.707103 0.000000 -0.707111
s off
g pCube15
usemtl initialShadingGroup
f 1/1/1 2/2/2 4/4/3 3/3/4
f 3/3/5 4/4/6 6/6/7 5/5/8
f 5/5/9 6/6/10 8/8/11 7/7/12
f 13/19/13 14/20/14 15/21/15 16/22/16
f 7/13/17 1/1/18 3/3/19 5/14/20
f 7/7/21 8/8/22 10/16/23 9/15/24
f 2/10/25 1/9/26 12/18/27 11/17/28
f 1/9/29 7/7/30 9/15/31 12/18/32
f 9/15/33 10/16/34 14/20/35 13/19/36
f 11/17/37 12/18/38 16/22/39 15/21/40
f 12/18/41 9/15/42 13/19/43 16/22/44
f 2/23/45 17/24/46 19/25/47 18/26/48
f 18/26/49 19/25/50 21/27/51 20/28/52
f 20/28/53 21/27/54 23/29/55 22/30/56
f 28/31/57 29/32/58 30/33/59 31/34/60
f 17/24/61 23/35/62 21/36/63 19/25/64
f 22/30/65 23/29/66 25/37/67 24/38/68
f 23/29/69 17/39/70 26/40/71 25/37/72
f 17/39/73 2/41/74 27/42/75 26/40/76
f 24/38/77 25/37/78 29/32/79 28/31/80
f 25/37/81 26/40/82 30/33/83 29/32/84
f 26/40/85 27/42/86 31/34/87 30/33/88
f 8/11/89 6/12/90 20/44/91 22/43/92
f 6/12/93 4/4/94 18/45/95 20/44/96
f 4/4/97 2/2/98 18/45/99
f 2/10/100 11/17/101 27/46/102
f 10/16/103 8/8/104 22/48/105 24/47/106
f 11/17/107 15/21/108 31/49/109 27/46/110
f 15/21/111 14/20/112 28/50/113 31/49/114
f 14/20/115 10/16/116 24/47/117 28/50/118
