# This file uses centimeters as units for non-parametric coordinates.

mtllib Wall 1.mtl
g default
v -1.022129 0.649558 0.264217
v 1.144239 0.649558 0.264217
v -1.022129 2.056731 0.264217
v 1.144239 2.056731 0.264217
v -1.022129 2.056731 0.062866
v 1.144239 2.056731 0.062866
v -1.022129 0.649558 0.062866
v 1.144239 0.649558 0.062866
v -1.022129 0.313588 -0.284586
v 1.144239 0.313588 -0.284586
v 1.144239 0.313588 -0.083235
v -1.022129 0.313588 -0.083235
v -1.022129 0.021336 -0.284586
v 1.144239 0.021336 -0.284586
v 1.144239 0.021336 -0.083235
v -1.022129 0.021336 -0.083235
vt 0.405961 0.120040
vt 0.594049 0.119975
vt 0.403872 0.307746
vt 0.597269 0.306992
vt 0.404984 0.500794
vt 0.595139 0.499592
vt 0.405329 0.694950
vt 0.594623 0.691174
vt 0.405341 0.884506
vt 0.594642 0.881516
vt 0.783996 0.120633
vt 0.784744 0.311063
vt 0.215393 0.119768
vt 0.215587 0.311060
vt 0.405408 0.683112
vt 0.594548 0.668521
vt 0.594480 0.838685
vt 0.405410 0.851846
vt 0.405378 0.689977
vt 0.594560 0.686054
vt 0.594578 0.879723
vt 0.405409 0.878058
vn 0.000000 0.000000 1.000000
vn 0.000000 0.000000 1.000000
vn 0.000000 0.000000 1.000000
vn 0.000000 0.000000 1.000000
vn 0.000000 1.000000 0.000000
vn 0.000000 1.000000 0.000000
vn 0.000000 1.000000 0.000000
vn 0.000000 1.000000 0.000000
vn 0.000000 0.000000 -1.000000
vn 0.000000 0.000000 -1.000000
vn 0.000000 0.000000 -1.000000
vn 0.000000 0.000000 -1.000000
vn 0.000000 -1.000000 0.000000
vn 0.000000 -1.000000 0.000000
vn 0.000000 -1.000000 0.000000
vn 0.000000 -1.000000 0.000000
vn 1.000000 0.000000 0.000000
vn 1.000000 0.000000 0.000000
vn 1.000000 0.000000 0.000000
vn 1.000000 0.000000 0.000000
vn -1.000000 0.000000 0.000000
vn -1.000000 0.000000 0.000000
vn -1.000000 0.000000 0.000000
vn -1.000000 0.000000 0.000000
vn 0.000000 0.718884 -0.695130
vn 0.000000 0.718884 -0.695130
vn 0.000000 0.718884 -0.695130
vn 0.000000 0.718884 -0.695130
vn 1.000000 -0.000000 0.000000
vn 1.000000 -0.000000 0.000000
vn 1.000000 -0.000000 0.000000
vn 1.000000 -0.000000 0.000000
vn 0.000000 -0.718884 0.695130
vn 0.000000 -0.718884 0.695130
vn 0.000000 -0.718884 0.695130
vn 0.000000 -0.718884 0.695130
vn -1.000000 0.000000 0.000000
vn -1.000000 0.000000 0.000000
vn -1.000000 0.000000 0.000000
vn -1.000000 0.000000 0.000000
vn 0.000000 0.000000 -1.000000
vn 0.000000 0.000000 -1.000000
vn 0.000000 0.000000 -1.000000
vn 0.000000 0.000000 -1.000000
vn 1.000000 0.000000 0.000000
vn 1.000000 0.000000 0.000000
vn 1.000000 0.000000 0.000000
vn 1.000000 0.000000 0.000000
vn 0.000000 0.000000 1.000000
vn 0.000000 0.000000 1.000000
vn 0.000000 0.000000 1.000000
vn 0.000000 0.000000 1.000000
vn -1.000000 0.000000 0.000000
vn -1.000000 0.000000 0.000000
vn -1.000000 0.000000 0.000000
vn -1.000000 0.000000 0.000000
s off
g pCube5
usemtl initialShadingGroup
f 1/1/1 2/2/2 4/4/3 3/3/4
f 3/3/5 4/4/6 6/6/7 5/5/8
f 5/5/9 6/6/10 8/8/11 7/7/12
f 13/19/13 14/20/14 15/21/15 16/22/16
f 2/2/17 8/11/18 6/12/19 4/4/20
f 7/13/21 1/1/22 3/3/23 5/14/24
f 7/7/25 8/8/26 10/16/27 9/15/28
f 8/8/29 2/10/30 11/17/31 10/16/32
f 2/10/33 1/9/34 12/18/35 11/17/36
f 1/9/37 7/7/38 9/15/39 12/18/40
f 9/15/41 10/16/42 14/20/43 13/19/44
f 10/16/45 11/17/46 15/21/47 14/20/48
f 11/17/49 12/18/50 16/22/51 15/21/52
f 12/18/53 9/15/54 13/19/55 16/22/56
